<?xml version="1.0" encoding="UTF-8" standalone="no"?>
<!-- Created with Inkscape (http://www.inkscape.org/) -->

<svg
   width="367.36734mm"
   height="244.89464mm"
   viewBox="0 0 367.36734 244.89464"
   version="1.1"
   id="svg5"
   inkscape:version="1.1.1 (3bf5ae0d25, 2021-09-20)"
   sodipodi:docname="mission_shapes.svg"
   xmlns:inkscape="http://www.inkscape.org/namespaces/inkscape"
   xmlns:sodipodi="http://sodipodi.sourceforge.net/DTD/sodipodi-0.dtd"
   xmlns="http://www.w3.org/2000/svg"
   xmlns:svg="http://www.w3.org/2000/svg">
  <sodipodi:namedview
     id="namedview7"
     pagecolor="#ffffff"
     bordercolor="#666666"
     borderopacity="1.0"
     inkscape:pageshadow="2"
     inkscape:pageopacity="0.0"
     inkscape:pagecheckerboard="0"
     inkscape:document-units="mm"
     showgrid="false"
     fit-margin-top="0"
     fit-margin-left="0"
     fit-margin-right="0"
     fit-margin-bottom="0"
     inkscape:zoom="0.77771465"
     inkscape:cx="441.67871"
     inkscape:cy="461.6089"
     inkscape:window-width="3840"
     inkscape:window-height="2066"
     inkscape:window-x="-11"
     inkscape:window-y="-11"
     inkscape:window-maximized="1"
     inkscape:current-layer="layer1" />
  <defs
     id="defs2" />
  <g
     inkscape:label="Layer 1"
     inkscape:groupmode="layer"
     id="layer1"
     transform="translate(56.528051,-26.104416)">
    <path
       style="fill:#000000;stroke-width:0.352778"
       d="M 77.495444,270.70139 C 32.912399,267.87909 -7.9046816,244.31241 -32.7393,207.05482 c -13.516127,-20.27727 -21.46876,-43.20103 -23.49783,-67.73333 -0.59983,-7.25223 -0.22532,-23.59842 0.69511,-30.33888 3.94831,-28.914374 15.523232,-54.442194 34.470918,-76.023614 1.788667,-2.03729 3.982116,-4.41301 4.874333,-5.27937 l 1.622214,-1.57521 0.782461,0.782464 0.782464,0.782466 -2.850522,2.90941 c -18.118064,18.49236 -31.383427,44.53695 -36.250168,71.171904 -1.81091,9.91079 -2.14214,13.89292 -2.14214,25.75278 0,11.85985 0.33123,15.84199 2.14214,25.75277 8.087862,44.26365 37.172276,82.26097 77.923826,101.80353 29.329907,14.06527 63.229848,17.50636 94.897214,9.63276 23.84242,-5.92805 46.5918,-18.49938 63.87118,-35.29529 l 2.13507,-2.07533 0.79888,0.85038 0.79889,0.85037 -4.16868,3.80995 c -29.58899,27.0428 -67.12526,40.37093 -106.650616,37.86881 z m 3.88056,-9.73101 c -44.492047,-1.93811 -84.4801596,-25.14399 -108.014097,-62.6827 -9.999446,-15.94999 -16.569262,-34.58631 -19.23267,-54.55647 -0.890392,-6.67614 -0.887734,-25.60405 0.0045,-32.27916 3.881641,-29.038844 15.099189,-53.275034 34.543679,-74.633704 l 3.5426194,-3.89137 0.831878,0.78151 0.831881,0.78151 -2.031114,2.14492 c -17.2650284,18.23236 -28.8798054,40.30751 -33.7299204,64.107394 -2.170998,10.65325 -2.848022,18.51698 -2.576891,29.93094 0.398861,16.7911 3.048987,29.96709 9.154267,45.51352 4.719867,12.01863 10.910321,22.64115 19.711332,33.82371 4.07652,5.17963 14.72986943,15.79957 20.1856684,20.12238 22.1874836,17.57987 47.7869846,27.2146 75.9565976,28.58734 35.124826,1.71168 70.310726,-11.13441 95.446326,-34.84668 1.88706,-1.78021 3.56902,-3.23675 3.73768,-3.23675 0.16866,0 0.57347,0.29482 0.89957,0.65517 0.5652,0.62454 0.43855,0.80274 -2.70934,3.81214 -4.29277,4.10391 -10.98296,9.45458 -16.29506,13.03242 -20.37324,13.72192 -42.84069,21.27037 -67.573576,22.70286 -5.88161,0.34066 -7.48949,0.35727 -12.68337,0.13102 z m -1.5875,-9.85164 C 61.036364,249.6823 46.86713,245.9116 31.45795,238.25706 11.944976,228.56395 -4.8294996,213.63512 -16.880918,195.23677 c -10.997101,-16.78878 -17.539253,-35.46114 -19.590779,-55.91528 -0.971233,-9.68338 -0.358296,-23.94202 1.463411,-34.04305 4.149646,-23.009034 15.281902,-45.143614 31.1890254,-62.014024 2.95352603,-3.13238 3.11846003,-3.25025 3.74929303,-2.67935 0.362924,0.32844 0.659864,0.77697 0.659864,0.99673 0,0.21975 -0.808697,1.18734 -1.79710303,2.15018 -0.988405,0.96285 -3.334204,3.57625 -5.212887,5.80757 -12.9611474,15.39401 -21.6789574,33.26177 -25.7843894,52.846884 -1.993106,9.50819 -2.307945,12.97546 -2.296717,25.2934 0.01099,12.05132 0.290049,15.23619 2.127239,24.27758 10.130301,49.85435 50.934892,88.48044 101.226355,95.822 24.13958,3.52391 48.468686,-0.13103 70.245726,-10.55295 11.05625,-5.29123 20.59088,-11.76558 30.06143,-20.41279 l 3.64606,-3.32908 0.76367,0.78354 0.76366,0.78354 -2.64583,2.47026 c -19.90088,18.58028 -43.95996,29.78389 -70.73195,32.93778 -4.447136,0.5239 -17.589066,0.93307 -21.166656,0.65903 z m 0.35278,-9.91337 c -3.95585,-0.20909 -11.6271,-1.21665 -16.05139,-2.10824 C 46.570363,235.56659 30.808038,228.27585 16.112117,216.90538 10.901639,212.87395 1.2944224,203.26627 -2.7333616,198.05899 -16.587156,180.14825 -24.515322,160.19106 -26.595289,137.99251 c -0.609798,-6.50809 -0.251138,-20.96738 0.667502,-26.91021 3.022746,-19.554624 10.884168,-38.110674 22.5169794,-53.148924 2.51824403,-3.25545 9.261326,-10.86327 9.628504,-10.86327 0.143037,0 0.538949,0.30816 0.8798,0.68479 0.600276,0.6633 0.511619,0.80451 -2.824021,4.49792 -15.2073894,16.83851 -24.6915794,36.85388 -28.0512804,59.199234 -1.070248,7.11821 -1.324691,20.31222 -0.534054,27.69305 2.695687,25.16507 13.392286,48.06963 30.8495954,66.05806 18.4930856,19.05572 42.0136746,30.48904 68.8410476,33.46351 5.70472,0.63251 18.13735,0.54343 23.97637,-0.17179 13.709946,-1.67932 24.587546,-4.91605 36.877786,-10.97332 10.07187,-4.96394 19.5232,-11.47866 26.55453,-18.30383 l 2.91842,-2.83285 0.77346,0.77345 0.77345,0.77345 -1.57521,1.62143 c -6.50284,6.69368 -17.06083,14.21371 -27.20341,19.3759 -18.07569,9.19985 -37.84048,13.35939 -58.332896,12.27626 z M 78.455734,231.1812 C 54.068922,229.30687 30.586952,218.47362 13.180019,201.06668 -11.678042,176.20862 -22.14917,140.80643 -14.958999,105.93053 -11.261376,87.995196 -1.9175416,69.940836 10.391406,56.947886 l 2.84075,-2.99861 0.792276,0.7732 0.792275,0.77321 -2.918135,3.08281 c -10.1358906,10.70787 -18.6414366,25.63969 -22.764297,39.96362 -3.200164,11.118234 -4.219134,19.204694 -3.96058,31.430764 0.227926,10.77784 1.170217,17.08834 3.972444,26.60344 9.2478924,31.40166 33.912843,57.03976 64.824221,67.38185 30.201824,10.10469 63.09144,5.76122 89.32167,-11.79601 4.25991,-2.85137 8.07532,-5.85274 12.38913,-9.74581 l 3.22045,-2.90635 0.76794,0.81744 0.76793,0.81743 -3.45921,3.0934 c -4.43271,3.96395 -8.93314,7.46547 -13.16061,10.2395 -19.17804,12.58451 -42.24749,18.47997 -65.361926,16.70343 z m 93.585196,-29.41516 -22.40035,-22.40427 h 2.99876 2.99876 l 19.50521,19.50758 19.5052,19.50758 -0.10362,2.89668 -0.10362,2.89669 z M 78.201004,221.34426 C 59.274324,219.42243 42.175052,212.5301 27.753783,201.01012 23.570005,197.66805 16.39023,190.44299 13.045844,186.20944 -5.5563276,162.66151 -11.823993,132.41297 -4.1536766,103.20237 c 1.72364,-6.564084 3.24395403,-10.548384 6.678764,-17.503104 4.207383,-8.51901 8.2223246,-14.41801 14.9322566,-21.9394 l 2.638453,-2.95754 0.820712,0.77102 0.82071,0.77102 -2.747007,3.0344 C 9.9397524,75.376086 3.9769084,85.427246 -0.26198057,97.830866 -9.3094066,124.30499 -5.7402836,153.82836 9.3385204,177.2451 c 7.0436026,10.93842 17.9433236,21.69001 28.9420696,28.54876 16.412583,10.23477 36.955504,15.14372 56.148184,13.41721 20.937176,-1.88344 40.472246,-10.56852 54.883646,-24.40069 l 2.49615,-2.39583 0.77728,0.82738 0.77727,0.82737 -2.57232,2.43582 c -13.49631,12.78011 -31.07861,21.24923 -50.18841,24.17497 -5.215906,0.79856 -17.493076,1.16256 -22.401386,0.66417 z M 176.98011,196.8276 159.51895,179.36177 h 2.82246 2.82246 l 14.743,14.74614 14.74301,14.74614 -0.10431,2.71969 -0.1043,2.71968 z M 80.317664,211.5961 C 65.042314,210.16282 51.850031,205.58543 39.748227,197.51954 34.934497,194.31117 32.01132,191.89865 27.358023,187.29381 13.788448,173.86553 5.5318794,156.94231 3.0064664,137.38121 2.3773334,132.50815 2.4781644,121.50245 3.1987694,116.39094 5.6675504,98.879026 13.305506,82.661486 24.943767,70.220146 l 2.208752,-2.36116 0.818544,0.76898 0.818543,0.76898 -2.620867,2.786 C 14.874629,84.188656 7.2617774,100.84208 5.1534014,118.15483 c -0.615505,5.05418 -0.52711,14.66285 0.184475,20.05224 2.936042,22.23701 14.8652066,42.38584 32.9388476,55.63503 8.367412,6.13387 17.886206,10.6112 28.05567,13.19646 7.44201,1.8919 12.09818,2.45373 20.33527,2.45373 8.2371,0 12.89327,-0.56183 20.335266,-2.45373 13.05052,-3.31768 24.18487,-9.27253 34.68551,-18.55043 l 3.24955,-2.87116 0.76275,0.78003 0.76275,0.78002 -1.94027,1.76684 c -13.46743,12.2636 -27.89885,19.19257 -45.847286,22.01269 -3.29813,0.51822 -15.22367,0.93367 -18.35827,0.63955 z M 181.91952,191.88924 169.39778,179.36177 h 2.82272 2.82272 l 9.80332,9.80801 9.80331,9.808 -0.10429,2.71946 -0.10429,2.71946 z m 4.94011,-4.93768 -7.58165,-7.58979 h 2.82387 2.82387 l 4.86203,4.87134 4.86202,4.87135 -0.10425,2.71845 -0.10425,2.71845 z m 4.58303,-4.94396 -2.62817,-2.64583 h 2.90158 2.90159 v 2.64583 c 0,1.45521 -0.12303,2.64584 -0.27341,2.64584 -0.15038,0 -1.45609,-1.19063 -2.90159,-2.64584 z m 55.38611,-15.23598 c -6.56538,-0.69132 -13.49818,-2.76026 -19.93194,-5.94822 -5.97712,-2.9617 -10.38588,-6.13501 -15.16945,-10.91857 -4.76834,-4.76834 -7.942,-9.17158 -10.93348,-15.16945 -2.62251,-5.25809 -4.05388,-9.42275 -5.18267,-15.07934 -1.15578,-5.79188 -1.15398,-16.009 0.004,-21.759804 4.21775,-20.94919 19.17832,-38.04234 38.9515,-44.50392 6.72368,-2.19719 9.54717,-2.59512 18.4358,-2.59823 7.66797,-0.003 8.34654,0.0518 12.34722,0.99139 22.99685,5.401 39.54537,22.15684 44.70831,45.26841 0.67154,3.006074 0.77438,4.530714 0.7809,11.575944 0.007,7.11142 -0.0899,8.5569 -0.78094,11.69965 -3.63873,16.54794 -13.31267,30.13327 -27.45744,38.55908 -9.08541,5.41204 -19.56633,8.20947 -30.23348,8.06953 -2.3669,-0.031 -4.85908,-0.11496 -5.53818,-0.18647 z m 15.69861,-24.25024 c 5.86712,-1.76145 10.19887,-4.29138 14.68301,-8.57549 7.94776,-7.59325 11.92772,-18.67874 10.54563,-29.37301 -2.73068,-21.129114 -23.05306,-35.068204 -43.49163,-29.830834 -12.09541,3.09945 -21.41769,12.12518 -25.1763,24.37542 -0.89607,2.920494 -0.97182,3.634534 -0.99049,9.335974 -0.0177,5.39352 0.0829,6.55251 0.79605,9.17222 3.08201,11.32205 11.41152,20.33315 22.46706,24.3055 4.14915,1.49083 6.37669,1.79098 12.34722,1.66373 4.89853,-0.1044 6.06403,-0.24627 8.81945,-1.07351 z"
       id="path1708" />
  </g>
</svg>
